<?xml version="1.0" standalone="no"?><!DOCTYPE svg PUBLIC "-//W3C//DTD SVG 1.1//EN" "http://www.w3.org/Graphics/SVG/1.1/DTD/svg11.dtd"><svg t="1544242375861" class="icon" style="" viewBox="0 0 1024 1024" version="1.1" xmlns="http://www.w3.org/2000/svg" p-id="3203" xmlns:xlink="http://www.w3.org/1999/xlink" width="128" height="128"><defs><style type="text/css"></style></defs><path d="M109.714 292.571c21.943 0 36.572-14.628 36.572-36.571s-14.629-36.571-36.572-36.571H36.571C14.63 219.429 0 234.057 0 256v512c0 21.943 14.629 36.571 36.571 36.571h73.143c21.943 0 36.572-14.628 36.572-36.571s-14.629-36.571-36.572-36.571H73.143V292.57h36.571z m694.857-146.285H219.43c-21.943 0-36.572 14.628-36.572 36.571v658.286c0 21.943 14.629 36.571 36.572 36.571H804.57c21.943 0 36.572-14.628 36.572-36.571V182.857c0-21.943-14.629-36.571-36.572-36.571zM768 804.57H256V705.83l109.714-109.715L486.4 720.457c7.314 7.314 14.629 10.972 25.6 10.972 7.314 0 18.286-3.658 25.6-10.972l84.114-87.771L768 778.97v25.6z m0-120.685L643.657 559.543c-7.314-7.314-14.628-10.972-21.943-10.972-7.314 0-18.285 3.658-25.6 10.972L512 647.314 391.314 522.971C380.343 515.657 373.03 512 365.714 512c-7.314 0-18.285 3.657-25.6 10.971L256 607.086V219.429h512v464.457z m219.429-464.457h-73.143c-21.943 0-36.572 14.628-36.572 36.571s14.629 36.571 36.572 36.571h36.571V731.43h-36.571c-21.943 0-36.572 14.628-36.572 36.571s14.629 36.571 36.572 36.571h73.143c21.942 0 36.571-14.628 36.571-36.571V256c0-21.943-14.629-36.571-36.571-36.571zM548.57 512c62.172 0 109.715-47.543 109.715-109.714 0-62.172-47.543-109.715-109.715-109.715-62.171 0-109.714 47.543-109.714 109.715C438.857 464.457 486.4 512 548.571 512z m0-146.286c21.943 0 36.572 14.629 36.572 36.572s-14.629 36.571-36.572 36.571c-21.942 0-36.571-14.628-36.571-36.571s14.629-36.572 36.571-36.572z" p-id="3204"></path></svg>