<?xml version="1.0" standalone="no"?><!DOCTYPE svg PUBLIC "-//W3C//DTD SVG 1.1//EN" "http://www.w3.org/Graphics/SVG/1.1/DTD/svg11.dtd"><svg t="1544249183743" class="icon" style="" viewBox="0 0 1030 1024" version="1.1" xmlns="http://www.w3.org/2000/svg" p-id="5600" xmlns:xlink="http://www.w3.org/1999/xlink" width="128.75" height="128"><defs><style type="text/css"></style></defs><path d="M1004.8 390.4c-121.6-409.6-512-384-512-384 544 268.8 300.8 646.4 300.8 646.4l-320-326.4L595.2 192 512 115.2l-64 57.6H326.4l-249.6 256 153.6 134.4L320 473.6l326.4 313.6c-275.2 179.2-524.8-115.2-524.8-115.2L25.6 755.2l76.8 89.6-12.8 19.2c-32-6.4-51.2 12.8-51.2 12.8-83.2 83.2 19.2 128 19.2 128 102.4 19.2 96-83.2 96-83.2l19.2-25.6c377.6 204.8 601.6 19.2 601.6 19.2l108.8 102.4 147.2-147.2-102.4-102.4s134.4-192 76.8-377.6" p-id="5601"></path></svg>