<?xml version="1.0" standalone="no"?><!DOCTYPE svg PUBLIC "-//W3C//DTD SVG 1.1//EN" "http://www.w3.org/Graphics/SVG/1.1/DTD/svg11.dtd"><svg t="1544242763597" class="icon" style="" viewBox="0 0 1027 1024" version="1.1" xmlns="http://www.w3.org/2000/svg" p-id="5396" xmlns:xlink="http://www.w3.org/1999/xlink" width="128.375" height="128"><defs><style type="text/css"></style></defs><path d="M834.58 908.8c-2.56 0-7.68 0-10.24-2.56L522.26 798.72c-12.8-2.56-17.92-15.36-15.36-28.16 2.56-12.8 15.36-17.92 28.16-15.36h2.56L826.9 857.6 977.94 92.16 64.02 593.92l268.8 94.72c12.8 2.56 17.92 15.36 15.36 28.16-2.56 12.8-15.36 17.92-28.16 15.36h-2.56l-294.4-102.4c-17.92-5.12-28.16-25.6-20.48-43.52 2.56-7.68 7.68-15.36 15.36-17.92l957.44-524.8c15.36-10.24 35.84-5.12 46.08 10.24 5.12 7.68 7.68 17.92 5.12 25.6L867.86 880.64c-2.56 17.92-17.92 30.72-33.28 28.16zM983.06 71.68z" p-id="5397"></path><path d="M445.46 985.6c-12.8 0-23.04-10.24-23.04-23.04l2.56-217.6c0-17.92 7.68-35.84 17.92-51.2L983.06 51.2c7.68-10.24 23.04-10.24 30.72-2.56s10.24 23.04 2.56 30.72l-537.6 642.56c-5.12 5.12-7.68 12.8-7.68 20.48L465.94 960c2.56 12.8-7.68 23.04-20.48 25.6 0-2.56 0-2.56 0 0z" p-id="5398"></path></svg>