<?xml version="1.0" standalone="no"?><!DOCTYPE svg PUBLIC "-//W3C//DTD SVG 1.1//EN" "http://www.w3.org/Graphics/SVG/1.1/DTD/svg11.dtd"><svg t="1544242743492" class="icon" style="" viewBox="0 0 1024 1024" version="1.1" xmlns="http://www.w3.org/2000/svg" p-id="4646" xmlns:xlink="http://www.w3.org/1999/xlink" width="128" height="128"><defs><style type="text/css"></style></defs><path d="M435.712 435.712c-42.048 42.048-42.048 110.464 0 152.512s110.464 42.048 152.512 0c14.592-14.592 38.208-14.592 52.8 0 14.592 14.592 14.592 38.208 0 52.8C605.44 676.608 558.72 694.4 512 694.4s-93.44-17.792-129.024-53.376c-71.168-71.168-71.168-186.944 0-258.048s186.944-71.168 258.048 0c14.592 14.592 14.592 38.208 0 52.8-14.592 14.592-38.208 14.592-52.8 0-41.984-42.112-110.464-42.112-152.512-0.064z m-156.16-141.504C157.376 420.096 160.384 621.888 286.272 744c59.776 58.048 138.24 89.856 221.44 89.856 1.6 0 3.264 0 4.864-0.064 84.928-1.28 164.352-35.52 223.488-96.512 14.336-14.784 14.016-38.4-0.768-52.736-14.784-14.336-38.4-14.016-52.736 0.768-45.312 46.656-106.048 72.896-171.072 73.856-65.088 0.96-126.528-23.424-173.184-68.736-96.32-93.504-98.624-247.936-5.12-344.32 93.504-96.32 247.936-98.624 344.32-5.12 14.784 14.336 38.4 14.016 52.736-0.768 14.336-14.784 14.016-38.4-0.768-52.736-125.952-122.112-327.744-119.104-449.92 6.72z m648.832 180.48c-20.608 0-37.312 16.704-37.312 37.312 0 209.024-170.048 379.072-379.072 379.072S132.928 721.024 132.928 512 302.976 132.928 512 132.928c20.608 0 37.312-16.704 37.312-37.312S532.608 58.304 512 58.304C261.824 58.304 58.304 261.824 58.304 512S261.824 965.696 512 965.696 965.696 762.176 965.696 512c0-20.608-16.704-37.312-37.312-37.312z" fill="" p-id="4647"></path></svg>