<?xml version="1.0" standalone="no"?><!DOCTYPE svg PUBLIC "-//W3C//DTD SVG 1.1//EN" "http://www.w3.org/Graphics/SVG/1.1/DTD/svg11.dtd"><svg t="1544249404151" class="icon" style="" viewBox="0 0 1024 1024" version="1.1" xmlns="http://www.w3.org/2000/svg" p-id="8868" xmlns:xlink="http://www.w3.org/1999/xlink" width="128" height="128"><defs><style type="text/css"></style></defs><path d="M249.9 230.6m-165.9 0a165.9 165.9 0 1 0 331.8 0 165.9 165.9 0 1 0-331.8 0Z" fill="" p-id="8869"></path><path d="M445.5 955.4H63.3V639.3c0-105.1 86-191.1 191.1-191.1s191.1 86 191.1 191.1v316.1zM797.7 707.8h-270c-20.3 0-36.8-16.5-36.8-36.8s16.5-36.8 36.8-36.8h270.1c22.4 0 43.7-9.4 59.8-26.5 16.7-17.6 25.9-41 25.9-65.9V280.2c0-24.9-9.2-48.3-25.9-65.9-16.2-17.1-37.4-26.5-59.8-26.5h-333c-20.3 0-36.8-16.5-36.8-36.8s16.5-36.8 36.8-36.8h333c87.9 0 159.4 74.5 159.4 166.1v261.5c0 91.5-71.5 166-159.5 166z" fill="" p-id="8870"></path><path d="M384.7 607.8c-9.3 0-18.7-3.5-25.8-10.6-14.5-14.3-14.7-37.6-0.4-52.1l236.7-240.8c14.3-14.5 37.6-14.7 52.1-0.4 14.5 14.3 14.7 37.6 0.4 52.1L410.9 596.8c-7.2 7.4-16.7 11-26.2 11z" fill="" p-id="8871"></path></svg>