<?xml version="1.0" standalone="no"?><!DOCTYPE svg PUBLIC "-//W3C//DTD SVG 1.1//EN" "http://www.w3.org/Graphics/SVG/1.1/DTD/svg11.dtd"><svg t="1544242829810" class="icon" style="" viewBox="0 0 1076 1024" version="1.1" xmlns="http://www.w3.org/2000/svg" p-id="1115" xmlns:xlink="http://www.w3.org/1999/xlink" width="134.5" height="128"><defs><style type="text/css"></style></defs><path d="M805.21033 190.284a17.774 17.774 0 0 1-12.585-30.306L946.98133 5.428a17.774 17.774 0 1 1 25.152 25.116L817.75933 185.077a17.721 17.721 0 0 1-12.55 5.19z m135.734 73.198a17.81 17.81 0 0 1-12.444-30.448l50.358-49.422a17.81 17.81 0 0 1 24.94 25.417l-50.375 49.422a17.898 17.898 0 0 1-12.497 5.03zM109.13433 808.06a17.774 17.774 0 0 1-12.532-30.36l68.22-67.867a17.774 17.774 0 1 1 25.064 25.188l-68.202 67.885a17.898 17.898 0 0 1-12.55 5.154z m-91.378 89.365a17.774 17.774 0 0 1-12.532-30.359l40.526-40.244a17.774 17.774 0 1 1 25.064 25.188l-40.508 40.261a17.916 17.916 0 0 1-12.55 5.154z m1043.496-432.761c14.685-16.733 19.274-38.655 12.161-58.636-7.148-20.545-22.805-34.648-44.215-39.696L765.60133 310.786c-10.237-2.383-17.474-7.467-22.504-15.78L608.36833 62.35c-11.014-18.886-29.759-29.706-51.54-29.706-22.399 0-41.744 11.296-51.558 29.741L369.57133 295.324c-4.412 8.137-11.208 13.061-21.18 15.426l-264.233 55.6c-21.922 5.207-38.002 19.875-43.95 39.644-7.29 20.898-2.63 42.926 12.285 58.742l180.69 200.6c6.373 6.302 9.25 14.686 8.05 23.917L213.38033 956.31c-3.019 22.152 5.683 42.186 23.546 54.7 17.245 13.062 39.767 15.356 59.96 6.319L543.06133 908.635c9.284-4.06 17.774-4.166 26.67-0.036l246.758 108.588c7.978 3.742 16.344 5.683 24.905 5.683 12.267 0 24.446-4.006 34.93-11.614 17.298-12.179 26-31.983 23.97-54.505l-27.888-267.78a29.9 29.9 0 0 1 7.837-24.129l181.009-200.177z" fill="" p-id="1116"></path></svg>