<?xml version="1.0" standalone="no"?><!DOCTYPE svg PUBLIC "-//W3C//DTD SVG 1.1//EN" "http://www.w3.org/Graphics/SVG/1.1/DTD/svg11.dtd"><svg t="1544249544351" class="icon" style="" viewBox="0 0 1024 1024" version="1.1" xmlns="http://www.w3.org/2000/svg" p-id="9730" xmlns:xlink="http://www.w3.org/1999/xlink" width="128" height="128"><defs><style type="text/css"></style></defs><path d="M833.279839 95.194026a11.899253 11.899253 0 0 0-11.899253-11.899253H202.619414a11.899253 11.899253 0 0 0-11.899253 11.899253v834.923007l272.82608-195.100157a83.294773 83.294773 0 0 1 96.907518 0L833.279839 930.117033V95.194026zM518.901567 793.085232a11.899253 11.899253 0 0 0-13.803134 0l-310.499115 222.040067A47.597013 47.597013 0 0 1 119.324641 976.405129V95.194026A83.294773 83.294773 0 0 1 202.619414 11.899253h618.761172A83.294773 83.294773 0 0 1 904.675359 95.194026v881.211103a47.597013 47.597013 0 0 1-75.274677 38.72017l-310.475317-222.040067zM321.611947 345.078346h380.776106a35.69776 35.69776 0 0 0 0-71.39552H321.611947a35.69776 35.69776 0 0 0 0 71.39552z m0 190.388052h380.776106a35.69776 35.69776 0 0 0 0-71.395519H321.611947a35.69776 35.69776 0 0 0 0 71.395519z" p-id="9731"></path></svg>