<?xml version="1.0" standalone="no"?><!DOCTYPE svg PUBLIC "-//W3C//DTD SVG 1.1//EN" "http://www.w3.org/Graphics/SVG/1.1/DTD/svg11.dtd"><svg t="1544248986127" class="icon" style="" viewBox="0 0 1024 1024" version="1.1" xmlns="http://www.w3.org/2000/svg" p-id="3927" xmlns:xlink="http://www.w3.org/1999/xlink" width="128" height="128"><defs><style type="text/css"></style></defs><path d="M487.697067 572.757333a60.893867 60.893867 0 0 1-44.6464-18.568533 60.8256 60.8256 0 0 1-18.500267-44.6464V128.750933c0-17.408 6.144-32.426667 18.500267-45.056a60.142933 60.142933 0 0 1 44.6464-19.114666c18.0224 0 33.245867 6.3488 45.533866 19.114666a62.327467 62.327467 0 0 1 18.6368 45.056v380.791467c0 17.408-6.144 32.290133-18.6368 44.6464a61.8496 61.8496 0 0 1-45.533866 18.500267m257.501866-369.800534c30.173867 21.367467 56.866133 45.602133 80.213334 72.635734 23.415467 27.101867 43.485867 56.32 60.142933 87.722666a443.050667 443.050667 0 0 1 51.131733 206.4384 433.493333 433.493333 0 0 1-35.498666 174.8992 457.728 457.728 0 0 1-96.324267 142.336 457.386667 457.386667 0 0 1-142.336 96.256 432.810667 432.810667 0 0 1-174.830933 35.498667c-61.44 0-119.466667-11.810133-173.943467-35.498667a465.1008 465.1008 0 0 1-142.7456-96.256 447.146667 447.146667 0 0 1-96.256-142.336 438.135467 438.135467 0 0 1-35.0208-174.8992c0-35.362133 4.096-70.178133 12.4928-104.174933 8.328533-34.133333 20.206933-66.491733 35.6352-97.28 15.36-30.72 34.338133-59.392 57.070933-86.152533a485.649067 485.649067 0 0 1 76.117334-72.157867 62.122667 62.122667 0 0 1 47.650133-12.014933c17.066667 2.730667 30.856533 10.990933 41.642667 25.053866a59.869867 59.869867 0 0 1 12.014933 47.104 63.010133 63.010133 0 0 1-25.122133 42.120534A311.227733 311.227733 0 0 0 200.567467 425.301333a318.600533 318.600533 0 0 0-33.5872 144.315734c0 44.100267 8.328533 85.742933 25.122133 124.791466a320.853333 320.853333 0 0 0 68.539733 102.263467c29.149867 29.013333 63.146667 52.087467 102.263467 69.085867 39.1168 17.066667 80.6912 25.6 124.791467 25.6 44.100267 0 85.674667-8.533333 124.791466-25.6a329.796267 329.796267 0 0 0 102.263467-69.085867 328.9088 328.9088 0 0 0 69.085867-102.263467c17.066667-39.048533 25.6-80.6912 25.6-124.791466 0-52.087467-12.0832-101.376-36.181334-147.797334a312.1152 312.1152 0 0 0-101.1712-114.756266 60.484267 60.484267 0 0 1-26.555733-41.096534 63.2832 63.2832 0 0 1 10.581333-48.128 61.303467 61.303467 0 0 1 41.028267-25.531733 63.0784 63.0784 0 0 1 48.059733 10.513067" p-id="3928"></path></svg>