<?xml version="1.0" standalone="no"?><!DOCTYPE svg PUBLIC "-//W3C//DTD SVG 1.1//EN" "http://www.w3.org/Graphics/SVG/1.1/DTD/svg11.dtd"><svg t="1544249214719" class="icon" style="" viewBox="0 0 1024 1024" version="1.1" xmlns="http://www.w3.org/2000/svg" p-id="7291" xmlns:xlink="http://www.w3.org/1999/xlink" width="128" height="128"><defs><style type="text/css"></style></defs><path d="M107.787587 379.368496a356.266416 356.266416 0 0 1 117.857307-267.671349A398.785582 398.785582 0 0 1 510.884365 0.091074a403.042887 403.042887 0 0 1 286.317269 111.606073A353.571919 353.571919 0 0 1 916.136739 379.368496a404.767365 404.767365 0 0 1-2.101707 43.435295 13.580266 13.580266 0 0 0-2.101708 9.861859l-6.305124 35.567363c-2.640607 0-2.101708 3.448956-2.101707 5.927894q-6.359013 19.939279-12.664137 35.567362v1.940038l-2.101708 1.993928a333.47097 333.47097 0 0 1-16.867552 37.722961 1.670588 1.670588 0 0 1-2.101708 1.993928 310.082735 310.082735 0 0 1-23.118786 37.72296c-8.406831 11.855788-17.406452 23.657685-27.376091 35.513473l-1.077799 1.023909-1.023909 0.970019a301.352564 301.352564 0 0 1-29.477799 27.645541 25.597723 25.597723 0 0 0-3.179506 1.993928 93.984061 93.984061 0 0 0-11.586338 11.855787 5.874004 5.874004 0 0 0-6.251234 3.933966l-20.047059 14.819735-4.203415 2.963946-3.125617 1.993928a86.22391 86.22391 0 0 0-27.376091 31.579507 87.571158 87.571158 0 0 1-16.867553 25.651613c-5.766224 5.388994 5.388994-3.933966-9.915749-3.933966H338.759885c-15.250854 0-4.149526 9.37685-9.969639 3.933966a99.858065 99.858065 0 0 1-17.891462-25.651613 108.588236 108.588236 0 0 0-26.298292-31.579507 5.658444 5.658444 0 0 1-4.203416-1.993928l-3.179506-2.963946-19.993169-14.819735-6.305124-3.933966-8.406831-7.921821-6.305123-5.927894-29.477799-27.645541-1.077799-0.970019-1.023909-1.023909a456.016702 456.016702 0 0 1-50.548767-73.074764 1.670588 1.670588 0 0 1-2.101708-1.993927 344.033399 344.033399 0 0 1-16.813662-37.722961 1.670588 1.670588 0 0 1-2.101708-1.993928V509.889939a485.548391 485.548391 0 0 1-12.664137-35.567362 17.568122 17.568122 0 0 1-1.023909-2.963947l-1.077799-2.963947a273.275903 273.275903 0 0 1-6.305123-35.567363c0-2.478937-2.101708-7.382922-2.101708-9.86186A404.767365 404.767365 0 0 1 107.787587 379.530166z m260.072868 420.934349h288.688427c16.705882 0 28.88501 44.890323 28.885009 106.432638S673.254764 1024 656.548882 1024H367.860455c-16.705882 0-28.88501-55.829981-28.88501-117.372297s12.179127-106.432638 28.88501-106.432638z m179.884631-610.57306a172.447819 172.447819 0 0 1 114.73169 46.399241 147.065656 147.065656 0 0 1 53.889943 115.540039 33.735105 33.735105 0 0 0 67.362429 0 204.296776 204.296776 0 0 0-71.565845-163.933208 245.253133 245.253133 0 0 0-164.202657-61.218976 31.687287 31.687287 0 1 0 0 63.212904z" p-id="7292"></path></svg>