<?xml version="1.0" standalone="no"?><!DOCTYPE svg PUBLIC "-//W3C//DTD SVG 1.1//EN" "http://www.w3.org/Graphics/SVG/1.1/DTD/svg11.dtd"><svg t="1544248975950" class="icon" style="" viewBox="0 0 1024 1024" version="1.1" xmlns="http://www.w3.org/2000/svg" p-id="3190" xmlns:xlink="http://www.w3.org/1999/xlink" width="128" height="128"><defs><style type="text/css"></style></defs><path d="M663.091672 679.502945l-69.965491-28.180829c1.944282-15.547091 0.972141-31.095205-0.970094-45.671179l69.964468-30.124088c15.547091-6.800893 22.350031-24.293289 15.547091-39.841404l-27.208689-62.191434c-5.829775-15.548114-24.293289-22.350031-38.868239-15.548114l-69.965491 29.151947c-9.717316-11.660574-20.405749-22.350031-33.029254-32.066323l28.170596-69.965491c5.829775-15.548114-0.971118-33.039487-16.520255-38.869263l-63.152319-25.26543c-15.548114-5.829775-33.039487 0.972141-39.841404 16.520255l-27.208689 69.965491c-15.548114-0.972141-31.095205-0.972141-46.64332 0.972141l-29.151947-68.993351c-6.801916-15.547091-24.294312-22.350031-39.841404-16.519232l-63.162552 27.208689c-14.575973 6.800893-22.350031 24.293289-15.547091 39.84038l30.123065 68.993351c-11.660574 9.717316-22.349007 20.405749-32.066323 33.038464l-69.965491-28.180829c-15.547091-5.830799-33.038464 1.943258-39.841404 16.520255l-25.26543 64.133669c-5.830799 15.548114 1.943258 33.038464 17.491373 38.869263l69.965491 28.180829c-1.943258 15.547091-1.943258 31.095205 0 45.671179L77.145519 687.275979c-15.548114 6.801916-22.350031 24.293289-15.548114 38.869263l26.236548 63.163575c6.801916 15.547091 24.293289 22.349007 39.841404 15.547091l68.993351-29.151947c9.717316 11.660574 21.37789 22.350031 33.039487 32.067346l-27.208689 69.964468c-6.801916 15.548114 0.972141 33.039487 16.519232 38.869263l63.162552 25.26543c15.548114 5.829775 33.039487-0.972141 38.869263-16.520255l28.180829-69.965491c15.547091 0.972141 31.095205 0.972141 46.64332-0.971118l29.151947 68.992327c6.801916 15.548114 24.293289 22.351054 39.841404 16.520255l62.181201-27.208689c15.547091-6.800893 22.351054-24.293289 16.520255-39.841404l-30.114878-68.993351c11.651364-9.716292 22.340821-21.37789 32.058137-33.038464l69.964468 28.179806c15.548114 5.830799 33.038464-1.942235 38.869263-17.491373l25.264407-63.162552C686.41282 702.824093 678.639786 685.333744 663.091672 679.502945zM322.022693 750.439554c-66.077951-26.236548-98.145297-101.060697-71.90875-166.166507 26.236548-66.077951 101.059674-98.145297 167.138648-71.90875 66.077951 26.237571 98.141204 101.060697 71.90875 166.166507C461.952652 744.608755 388.100644 776.676102 322.022693 750.439554z" p-id="3191"></path><path d="M958.498682 853.442486l-32.066323-13.603833c0.971118-6.800893 0.971118-13.604856 0-21.378913l32.066323-13.603833c6.80294-2.915399 9.718339-10.688433 6.80294-17.492396l-12.632715-29.150924c-2.915399-6.800893-10.689457-10.688433-17.492396-6.800893l-32.066323 13.603833c-4.858658-5.829775-9.718339-10.689457-15.548114-15.548114l12.632715-32.067346c2.916423-6.800893 0-14.575973-7.774057-17.491373l-29.151947-11.660574c-6.800893-2.915399-14.57495 0-17.491373 7.774057l-12.632715 32.067346c-7.774057-0.972141-14.575973-0.972141-21.378913 0l-13.603833-32.067346c-2.916423-6.801916-11.660574-9.718339-18.463514-6.801916l-29.150924 12.632715c-6.801916 2.916423-9.718339 10.689457-6.801916 17.491373l13.603833 32.06837c-5.829775 4.857635-10.688433 9.716292-14.57495 15.547091l-32.06837-12.633738c-7.774057-2.914376-15.547091 0-18.46249 6.801916l-11.661597 29.151947c-2.915399 7.774057 0.972141 15.548114 7.77508 18.463514l32.067346 12.632715c0 7.774057 0 14.575973 0 21.37789l-31.096229 13.604856c-7.774057 2.915399-10.689457 11.661597-7.774057 18.46249l12.631692 29.151947c2.916423 6.801916 10.689457 9.717316 18.464537 6.801916l31.095205-13.604856c4.857635 4.858658 9.717316 10.688433 15.547091 14.575973l-12.632715 32.067346c-2.915399 7.774057 0 15.547091 7.774057 18.46249l29.151947 11.661597c6.801916 2.916423 14.575973-0.971118 17.491373-7.774057l13.603833-32.066323c6.80294 0 13.604856 0 20.406772-0.972141l13.604856 32.067346c3.886517 6.801916 11.660574 10.688433 18.46249 7.774057l29.150924-12.632715c6.80294-2.915399 9.718339-11.661597 6.80294-18.46249l-13.604856-32.06837c5.830799-3.886517 10.688433-8.745175 14.57495-14.57495l33.039487 12.631692c6.801916 2.916423 14.575973-0.970094 17.491373-7.774057l11.661597-29.150924C969.189162 864.131943 965.301622 856.358909 958.498682 853.442486zM802.050514 885.509832c-31.096229-11.660574-45.672202-46.64332-33.039487-76.766384 11.661597-30.124088 45.671179-44.701085 76.767408-33.039487 30.124088 12.632715 44.700061 46.64332 33.039487 76.767408C866.184183 882.594433 832.174602 898.143571 802.050514 885.509832z" p-id="3192"></path><path d="M892.421754 250.966868l-40.812521-15.547091c0.971118-9.717316 0.971118-18.46249 0-27.208689l39.841404-16.519232c8.745175-3.886517 12.631692-14.576997 8.745175-23.322172l-15.547091-35.954887c-3.88754-8.745175-13.603833-12.632715-22.350031-8.745175l-39.842427 16.519232c-5.828752-5.829775-11.660574-12.631692-19.433608-18.46249l16.519232-39.841404c2.915399-8.745175-0.971118-19.434631-9.716292-22.349007l-36.926004-14.576997c-8.746198-3.886517-18.463514 0.972141-22.350031 9.717316l-15.548114 39.841404c-8.745175-0.972141-18.46249 0-27.208689 0.971118l-16.520255-39.841404c-3.886517-8.745175-13.603833-13.603833-22.349007-9.717316l-36.927027 15.547091c-8.745175 3.886517-12.631692 14.575973-8.745175 23.322172l17.491373 39.841404c-6.800893 4.858658-13.603833 11.660574-18.46249 18.46249l-40.813544-15.547091c-8.745175-3.886517-18.46249 0-22.350031 9.717316l-14.575973 35.953863c-2.915399 8.746198 0.972141 18.463514 9.717316 22.350031l40.813544 16.519232c-0.972141 8.745175-0.972141 17.491373 0 26.236548l-39.842427 17.491373c-8.745175 2.915399-12.632715 13.603833-8.745175 22.349007l14.575973 35.954887c3.88754 8.746198 14.575973 12.632715 23.322172 8.746198l39.84038-16.520255c5.830799 6.801916 11.661597 12.632715 18.463514 18.46249l-15.547091 39.841404c-3.88754 8.745175 0.971118 19.434631 9.716292 22.349007l35.954887 14.576997c8.746198 3.886517 19.434631-0.972141 22.350031-9.717316l16.520255-39.841404c8.746198 0.972141 17.491373 0.972141 26.236548-0.971118l17.492396 40.812521c3.886517 8.745175 13.603833 12.632715 22.350031 8.745175l35.954887-15.547091c8.744151-3.886517 12.631692-13.604856 9.716292-22.350031l-17.491373-39.84038c6.801916-5.830799 12.632715-12.632715 18.463514-19.434631l39.841404 16.519232c9.716292 2.915399 19.434631-0.972141 23.321148-9.717316l14.575973-36.926004C905.053446 264.571724 901.167952 254.854409 892.421754 250.966868zM696.131159 291.780413c-37.897122-14.575973-56.361659-58.303894-41.784662-96.202039 15.547091-36.926004 58.304917-55.389518 96.202039-40.812521 37.897122 15.547091 56.359612 58.303894 40.812521 96.201016C776.785084 288.865014 734.029304 307.328527 696.131159 291.780413z" p-id="3193"></path></svg>