<?xml version="1.0" standalone="no"?><!DOCTYPE svg PUBLIC "-//W3C//DTD SVG 1.1//EN" "http://www.w3.org/Graphics/SVG/1.1/DTD/svg11.dtd"><svg t="1544249127988" class="icon" style="" viewBox="0 0 1024 1024" version="1.1" xmlns="http://www.w3.org/2000/svg" p-id="4660" xmlns:xlink="http://www.w3.org/1999/xlink" width="128" height="128"><defs><style type="text/css"></style></defs><path d="M685.74102 62.129013c-150.7197 0-272.89939 122.180713-272.89939 272.898367 0 31.265074 5.327332 61.271482 15.006785 89.24458L98.884125 750.804874c-47.220465 47.222511-47.220465 123.782188 0 171.002652 47.222511 47.220465 123.782188 47.220465 171.002652 0l22.733771-22.565948 65.892733 0c15.312754 0 27.725458-12.412704 27.725458-27.725458l0-64.3721 64.3721 0c15.312754 0 27.725458-12.412704 27.725458-27.725458l0-64.520479L600.019683 594.113159c26.965142 8.918114 55.763025 13.81361 85.720314 13.81361 150.717653 0 272.898367-122.180713 272.898367-272.89939C958.638363 184.309726 836.458673 62.129013 685.74102 62.129013zM751.235686 356.859617c-46.723138 0-84.59877-37.876656-84.59877-84.59877 0-46.723138 37.876656-84.597747 84.59877-84.597747 46.723138 0 84.59877 37.874609 84.59877 84.597747C835.834456 318.982962 797.958824 356.859617 751.235686 356.859617z" p-id="4661"></path></svg>