<?xml version="1.0" standalone="no"?><!DOCTYPE svg PUBLIC "-//W3C//DTD SVG 1.1//EN" "http://www.w3.org/Graphics/SVG/1.1/DTD/svg11.dtd"><svg t="1544249169833" class="icon" style="" viewBox="0 0 1024 1024" version="1.1" xmlns="http://www.w3.org/2000/svg" p-id="5458" xmlns:xlink="http://www.w3.org/1999/xlink" width="128" height="128"><defs><style type="text/css"></style></defs><path d="M512 159.2832C597.7088 121.3952 683.1616 102.4 768.3584 102.4c61.5424 0 123.0336 9.8816 184.576 29.696A102.4 102.4 0 0 1 1024 229.4784v556.2368a102.4 102.4 0 0 1-125.184 99.84A592.9984 592.9984 0 0 0 766.5152 870.4c-84.8384 0-169.6768 18.944-254.5152 56.8832C426.496 889.3952 341.1456 870.4 255.8464 870.4c-43.5712 0-87.1424 4.9664-130.7648 14.848A102.4 102.4 0 0 1 0 785.408V229.4272a102.4 102.4 0 0 1 71.0144-97.4848A598.4256 598.4256 0 0 1 255.3344 102.4C340.8896 102.4 426.496 121.344 512 159.2832zM204.8 307.2a51.2 51.2 0 1 0 0 102.4h102.4a51.2 51.2 0 1 0 0-102.4H204.8z" p-id="5459"></path></svg>