<?xml version="1.0" standalone="no"?><!DOCTYPE svg PUBLIC "-//W3C//DTD SVG 1.1//EN" "http://www.w3.org/Graphics/SVG/1.1/DTD/svg11.dtd"><svg t="1544242787664" class="icon" style="" viewBox="0 0 1024 1024" version="1.1" xmlns="http://www.w3.org/2000/svg" p-id="6265" xmlns:xlink="http://www.w3.org/1999/xlink" width="128" height="128"><defs><style type="text/css"></style></defs><path d="M883.3 307.5H348.4c-22.8 0-41.1-19.7-41.1-44.1s18.3-44.1 41.1-44.1h534.8c22.8 0 41.1 19.7 41.1 44.1s-18.2 44.1-41 44.1z m-703.4 0h-39.2c-21.7 0-39.2-19.7-39.2-44.1s17.4-44.1 39.2-44.1h39.2c21.7 0 39.2 19.7 39.2 44.1s-17.4 44.1-39.2 44.1z m0 264.5h-39.2c-21.7 0-39.2-19.7-39.2-44.1 0-24.4 17.4-44.1 39.2-44.1h39.2c21.7 0 39.2 19.7 39.2 44.1 0 24.4-17.4 44.1-39.2 44.1z m323.3 0H346.5c-21.7 0-39.2-19.7-39.2-44.1 0-24.4 17.4-44.1 39.2-44.1h156.7c21.7 0 39.2 19.7 39.2 44.1 0 24.4-17.4 44.1-39.2 44.1z m380.1 235.1H348.4c-22.8 0-41.1-19.7-41.1-44.1s18.3-44.1 41.1-44.1h534.8c22.8 0 41.1 19.7 41.1 44.1s-18.2 44.1-41 44.1z m-703.4 0h-39.2c-21.7 0-39.2-19.7-39.2-44.1s17.4-44.1 39.2-44.1h39.2c21.7 0 39.2 19.7 39.2 44.1s-17.4 44.1-39.2 44.1z" p-id="6266"></path></svg>