<?xml version="1.0" standalone="no"?><!DOCTYPE svg PUBLIC "-//W3C//DTD SVG 1.1//EN" "http://www.w3.org/Graphics/SVG/1.1/DTD/svg11.dtd"><svg t="1544249198957" class="icon" style="" viewBox="0 0 1024 1024" version="1.1" xmlns="http://www.w3.org/2000/svg" p-id="6359" xmlns:xlink="http://www.w3.org/1999/xlink" width="128" height="128"><defs><style type="text/css"></style></defs><path d="M980.992 698.368l-24.064 22.016-94.72-98.304 24.064-22.016c30.72-28.672 79.36-30.208 104.96-4.096 25.6 26.624 20.992 72.704-10.24 102.4zM439.296 843.776c-11.264 0-35.328 34.304-48.128 52.736-26.112 36.864-50.176 71.168-84.992 71.168-34.816-1.024-58.368-37.376-80.384-72.192-10.24-15.872-30.208-47.616-40.96-51.2-14.336 7.68-45.056 49.152-109.568 118.272-4.608 5.12-11.776 8.192-18.432 8.192-13.824 0-25.088-11.264-25.088-24.576V60.416c0-30.72 25.088-55.296 55.296-55.296h705.536c30.72 0 55.296 24.576 55.296 54.272v486.912L481.28 891.392c-12.288-17.92-32.256-47.616-41.984-47.616z m231.936-591.36H208.896c-18.944 0-34.816 15.36-34.816 33.792 0 18.944 15.36 33.792 34.816 33.792h462.336c18.944 0 34.816-15.36 34.816-33.792-0.512-18.432-15.872-33.792-34.816-33.792z m0 152.576H208.896c-18.944 0-34.816 15.36-34.816 33.792 0 18.944 15.36 33.792 34.816 33.792h462.336c18.944 0 34.816-15.36 34.816-33.792-0.512-18.432-15.872-33.792-34.816-33.792z m34.304 186.368c0-18.944-15.36-33.792-34.816-33.792H208.896c-18.944 0-34.816 15.36-34.816 33.792 0 18.944 15.36 33.792 34.816 33.792h462.336c18.944 0 34.304-14.848 34.304-33.792zM570.368 896c0.512-3.584 3.072-7.68 6.144-10.24l246.784-227.328 93.184 97.28-245.76 228.864c-2.56 2.56-6.656 4.096-10.752 5.632l-100.864 27.648c-1.536 1.536-4.096 1.536-5.12 1.536-5.12 0-11.264-2.048-14.848-5.632-4.608-4.608-6.656-12.288-3.072-19.968L570.368 896z" fill="" p-id="6360"></path></svg>